<svg xmlns="http://www.w3.org/2000/svg" width="900" height="1200" viewBox="0 0 900 1200">
  <rect width="900" height="1200" fill="#e9eef2"/>
  <rect x="270" y="55" width="360" height="760" rx="34" fill="#101820"/>
  <rect x="282" y="67" width="336" height="736" rx="26" fill="#f8fafb"/>
  <text x="306" y="112" font-family="Arial, sans-serif" font-size="13" font-weight="700" fill="#157a5b">Metal Watch</text>
  <text x="306" y="144" font-family="Arial, sans-serif" font-size="28" font-weight="800" fill="#16202a">원자재 시세</text>
  <circle cx="583" cy="124" r="19" fill="#eef3f6"/>
  <circle cx="583" cy="124" r="5" fill="#c14a45"/>

  <rect x="306" y="170" width="288" height="82" rx="8" fill="#172331"/>
  <text x="324" y="200" font-family="Arial, sans-serif" font-size="13" fill="#aebdca">USD/KRW</text>
  <text x="488" y="203" text-anchor="end" font-family="Arial, sans-serif" font-size="24" font-weight="800" fill="#ffffff">₩1,507.82</text>
  <text x="324" y="229" font-family="Arial, sans-serif" font-size="12" fill="#aebdca">1시간 전 업데이트 · +0.18%</text>

  <rect x="306" y="266" width="137" height="64" rx="8" fill="#ffffff" stroke="#dce4ea"/>
  <text x="322" y="292" font-family="Arial, sans-serif" font-size="12" font-weight="700" fill="#71808f">상승 TOP</text>
  <text x="322" y="316" font-family="Arial, sans-serif" font-size="17" font-weight="800" fill="#16202a">Sn +7.8%</text>
  <rect x="457" y="266" width="137" height="64" rx="8" fill="#ffffff" stroke="#dce4ea"/>
  <text x="473" y="292" font-family="Arial, sans-serif" font-size="12" font-weight="700" fill="#71808f">하락 TOP</text>
  <text x="473" y="316" font-family="Arial, sans-serif" font-size="17" font-weight="800" fill="#16202a">W -25.1%</text>

  <rect x="306" y="350" width="66" height="34" rx="17" fill="#dff3eb" stroke="#1c6b55"/>
  <text x="339" y="371" text-anchor="middle" font-family="Arial, sans-serif" font-size="12" font-weight="800" fill="#157a5b">대시보드</text>
  <rect x="380" y="350" width="66" height="34" rx="17" fill="#ffffff" stroke="#dce4ea"/>
  <text x="413" y="371" text-anchor="middle" font-family="Arial, sans-serif" font-size="12" font-weight="800" fill="#71808f">시세표</text>
  <rect x="454" y="350" width="66" height="34" rx="17" fill="#ffffff" stroke="#dce4ea"/>
  <text x="487" y="371" text-anchor="middle" font-family="Arial, sans-serif" font-size="12" font-weight="800" fill="#71808f">상세</text>
  <rect x="528" y="350" width="66" height="34" rx="17" fill="#ffffff" stroke="#dce4ea"/>
  <text x="561" y="371" text-anchor="middle" font-family="Arial, sans-serif" font-size="12" font-weight="800" fill="#71808f">추가</text>

  <text x="306" y="418" font-family="Arial, sans-serif" font-size="17" font-weight="800" fill="#16202a">관심 원자재</text>
  <text x="594" y="418" text-anchor="end" font-family="Arial, sans-serif" font-size="12" font-weight="700" fill="#71808f">05-19 기준</text>

  <rect x="306" y="436" width="288" height="70" rx="8" fill="#ffffff" stroke="#dce4ea"/>
  <rect x="306" y="436" width="4" height="70" fill="#c14a45"/>
  <text x="326" y="464" font-family="Arial, sans-serif" font-size="16" font-weight="800" fill="#16202a">Co(코발트)</text>
  <text x="326" y="486" font-family="Arial, sans-serif" font-size="12" font-weight="700" fill="#71808f">99.8% Min</text>
  <text x="574" y="464" text-anchor="end" font-family="Arial, sans-serif" font-size="16" font-weight="800" fill="#16202a">$56.2500</text>
  <text x="574" y="486" text-anchor="end" font-family="Arial, sans-serif" font-size="12" font-weight="700" fill="#71808f">₩84,814</text>

  <rect x="306" y="516" width="288" height="70" rx="8" fill="#ffffff" stroke="#dce4ea"/>
  <rect x="306" y="516" width="4" height="70" fill="#c14a45"/>
  <text x="326" y="544" font-family="Arial, sans-serif" font-size="16" font-weight="800" fill="#16202a">Li(리튬)</text>
  <text x="326" y="566" font-family="Arial, sans-serif" font-size="12" font-weight="700" fill="#71808f">Li2CO3 Carbonate</text>
  <text x="574" y="544" text-anchor="end" font-family="Arial, sans-serif" font-size="16" font-weight="800" fill="#16202a">$22.6400</text>
  <text x="574" y="566" text-anchor="end" font-family="Arial, sans-serif" font-size="12" font-weight="700" fill="#71808f">₩34,137</text>

  <rect x="306" y="596" width="288" height="70" rx="8" fill="#ffffff" stroke="#dce4ea"/>
  <rect x="306" y="596" width="4" height="70" fill="#275f9f"/>
  <text x="326" y="624" font-family="Arial, sans-serif" font-size="16" font-weight="800" fill="#16202a">W(텅스텐)</text>
  <text x="326" y="646" font-family="Arial, sans-serif" font-size="12" font-weight="700" fill="#71808f">WC Carbide 99.8%</text>
  <text x="574" y="624" text-anchor="end" font-family="Arial, sans-serif" font-size="16" font-weight="800" fill="#16202a">$253.570</text>
  <text x="574" y="646" text-anchor="end" font-family="Arial, sans-serif" font-size="12" font-weight="700" fill="#71808f">₩382,333</text>

  <rect x="282" y="730" width="336" height="73" fill="#ffffff"/>
  <line x1="282" y1="730" x2="618" y2="730" stroke="#dce4ea"/>
  <text x="324" y="774" text-anchor="middle" font-family="Arial, sans-serif" font-size="12" font-weight="800" fill="#157a5b">홈</text>
  <text x="408" y="774" text-anchor="middle" font-family="Arial, sans-serif" font-size="12" font-weight="800" fill="#71808f">시세</text>
  <text x="492" y="774" text-anchor="middle" font-family="Arial, sans-serif" font-size="12" font-weight="800" fill="#71808f">알림</text>
  <text x="576" y="774" text-anchor="middle" font-family="Arial, sans-serif" font-size="12" font-weight="800" fill="#71808f">설정</text>

  <text x="450" y="905" text-anchor="middle" font-family="Arial, sans-serif" font-size="24" font-weight="800" fill="#16202a">원자재 시세 앱 1차 화면 시안</text>
  <text x="450" y="942" text-anchor="middle" font-family="Arial, sans-serif" font-size="16" fill="#71808f">대시보드 · 환율 · 관심 원자재 · 시세표 · 항목 추가 구조</text>
</svg>
